<?xml version="1.0" encoding="UTF-8" standalone="no"?>
<svg
   width="321"
   height="197"
   viewBox="0 0 321 197"
   fill="none"
   version="1.1"
   id="svg44"
   sodipodi:docname="plants-sitting.svg"
   inkscape:version="1.1 (c68e22c387, 2021-05-23)"
   xmlns:inkscape="http://www.inkscape.org/namespaces/inkscape"
   xmlns:sodipodi="http://sodipodi.sourceforge.net/DTD/sodipodi-0.dtd"
   xmlns="http://www.w3.org/2000/svg"
   xmlns:svg="http://www.w3.org/2000/svg">
  <defs
     id="defs48" />
  <sodipodi:namedview
     id="namedview46"
     pagecolor="#ffffff"
     bordercolor="#666666"
     borderopacity="1.0"
     inkscape:pageshadow="2"
     inkscape:pageopacity="0.0"
     inkscape:pagecheckerboard="0"
     showgrid="false"
     inkscape:zoom="4.2211838"
     inkscape:cx="160.5"
     inkscape:cy="117.38413"
     inkscape:window-width="1842"
     inkscape:window-height="1051"
     inkscape:window-x="2469"
     inkscape:window-y="-9"
     inkscape:window-maximized="1"
     inkscape:current-layer="svg44" />
  <g
     opacity="0.504511"
     id="g4">
    <path
       opacity="0.504511"
       fill-rule="evenodd"
       clip-rule="evenodd"
       d="M297.211 151.919C301.198 181.74 204.522 201.191 121.312 187.616C38.1011 174.042 -0.0719852 121.032 39.6347 92.7857C79.3415 64.5398 293.225 122.098 297.211 151.919Z"
       fill="#F2F2F2"
       id="path2" />
  </g>
  <path
     fill-rule="evenodd"
     clip-rule="evenodd"
     d="M179.673 14.113C177.541 13.0555 174.698 14.282 175.884 17.0775C177.154 20.071 181.851 20.108 184.503 20.0486C184.238 20.0347 183.383 17.2896 183.09 16.8748C182.227 15.6511 180.984 14.7643 179.673 14.113ZM204.242 67.7843C204.78 68.2443 204.286 67.8274 204.242 67.7843V67.7843ZM177.619 27.6529C176.371 28.6069 176.312 30.2912 177.331 31.4312C178.545 32.7885 180.761 32.7391 182.416 32.6068C183.164 32.5469 187.16 32.2269 186.213 31.5729C186.286 31.6005 186.438 31.6673 186.601 31.758C186.688 32.0783 186.78 32.3974 186.876 32.7151C186.853 32.7288 186.833 32.7435 186.808 32.7572C186.835 32.7453 186.854 32.7324 186.878 32.7203C187.839 35.8955 189.207 38.9189 190.998 41.7473C190.328 41.4834 189.634 41.2837 188.93 41.1947C186.845 40.9311 182.459 42.5512 184.791 45.3271C187.027 47.9883 190.508 45.1333 193.046 44.7396C195.507 48.1751 198.221 51.4675 201.065 54.6499C200.891 54.7045 200.738 54.8182 200.65 54.9953C199.509 54.4164 198.32 53.5883 197.264 53.3641C195.741 53.041 192.616 52.8451 191.464 54.2091C190.048 55.8863 191.566 57.2486 193.24 57.5703C195.666 58.0368 198.843 56.8511 201.178 56.05C201.445 56.0972 201.736 56.019 201.911 55.8054C201.962 55.7885 202.014 55.7719 202.064 55.7557C204.944 58.9226 207.934 61.9849 210.906 64.9801C210.875 64.9785 210.843 64.9765 210.81 64.9748C210.035 64.4663 209.203 64.0491 208.302 63.8305C206.217 63.3222 203.763 63.3197 202.071 64.8286C200.386 66.331 199.789 68.9586 201.532 70.6456C205.023 74.0226 210.165 66.3229 211.926 66.0015C214.946 69.0134 218.14 71.8274 221.384 74.5846C221.015 74.4725 220.637 74.39 220.247 74.3529C217.066 74.0484 209.6 77.9484 213.504 81.7855C216.906 85.1292 220.843 78.6934 223.584 76.4427C226.641 79.0126 229.714 81.5648 232.701 84.2166C231.072 83.784 229.498 83.7202 227.751 84.248C225.944 84.7949 223.028 86.1596 224.171 88.5997C225.333 91.0812 228.834 89.952 230.658 89.1642C231.653 88.7345 233.647 87.2843 235.398 86.6734C240.165 91.1739 244.293 96.131 247.419 101.97C249.37 105.616 250.851 109.512 251.894 113.515C252.559 116.071 253.87 120.363 253.607 123.689C254.858 117.031 252.596 109.035 250.16 103.085C247.92 97.6128 244.567 92.8091 240.64 88.4852C241.626 85.521 249.92 81.2455 244.962 78.4915C242.328 77.0354 239.631 79.4516 239.056 82.0106C238.66 83.7691 239.263 85.9786 239.902 87.6854C238.667 86.3673 237.382 85.0916 236.059 83.8582C234.23 82.1537 232.358 80.4985 230.467 78.8643C233.583 75.9373 236.531 67.5697 232.354 66.2012C226.186 64.1861 229.156 75.5999 229.586 77.7391C229.708 77.7463 229.803 77.7093 229.873 77.6302C229.839 77.8261 229.798 78.0356 229.75 78.2468C226.131 75.1352 222.459 72.0848 218.908 68.8988C219.228 68.6623 219.737 67.7587 220.136 67.2777C221.039 66.1934 221.902 65.0608 222.533 63.7923C223.529 61.7878 224.49 58.5905 221.849 57.4114C218.976 56.1268 217.611 59.7431 217.591 61.9003C217.577 63.3923 217.983 64.8096 218.195 66.272C218.261 66.7281 218.006 68.784 218.628 67.8996C218.598 68.2257 218.594 68.4619 218.609 68.6293C217.971 68.0545 217.339 67.4734 216.71 66.8881C216.739 66.8142 216.761 66.7336 216.766 66.6402C216.799 65.9971 216.152 65.7494 215.698 65.9377C214.869 65.1494 214.047 64.3512 213.241 63.5371C211.531 61.8123 209.796 60.0383 208.074 58.2266C208.448 57.9054 208.299 57.4608 208.648 57.1199C208.997 56.7798 209.685 56.5917 210.095 56.2758C211.127 55.4807 211.983 54.3223 212.602 53.1824C213.624 51.2987 214.944 47.3474 211.959 46.4496C208.882 45.5228 207.32 49.3264 207.123 51.7045C207.084 52.1652 207.429 56.3163 207.693 57.8237C204.506 54.4566 201.371 50.9632 198.53 47.409C199.392 47.401 201.833 45.6364 202.327 45.1549C203.531 43.9805 205.445 41.3855 203.334 40.0123C201.457 38.7943 199.143 40.5584 198.34 42.2729C198.208 42.5553 197.743 45.1829 197.706 46.3619C196.531 44.8547 195.409 43.3386 194.366 41.8177C193.67 40.8065 193.02 39.7685 192.412 38.7086C192.558 38.6256 192.696 38.4808 192.826 38.3008C195.957 37.7694 199.949 32.8836 196.271 31.1837C194.52 30.3754 192.621 32.0439 191.764 33.41C191.588 33.6894 191.303 35.0945 191.072 36.2028C189.322 32.6913 187.984 28.9737 186.966 25.162C187.239 25.0943 187.47 24.8861 187.5 24.5279C189.02 23.6612 190.221 22.9395 191.282 21.2728C191.941 20.2376 193.128 17.8725 191.191 17.2979C188.67 16.5503 187.087 20.401 186.881 22.2977C186.857 22.5178 186.857 23.1581 186.866 23.7449C186.778 23.733 186.69 23.7343 186.603 23.7497C186.024 21.3894 185.562 18.9988 185.194 16.6042C186.57 16.1613 186.808 8.93467 185.892 7.90567C183.844 5.60164 182.4 8.92992 182.509 10.689C182.638 12.7631 183.578 14.6499 184.697 16.3243C184.817 16.5016 184.783 16.493 184.814 16.246C184.831 16.3681 184.872 16.4582 184.933 16.5235C184.875 17.6153 184.762 18.7331 184.816 19.6992C184.971 22.4658 185.294 25.2486 185.761 27.9797C185.875 28.6439 186.006 29.3027 186.152 29.9558C185.046 29.0136 183.555 28.1764 182.971 27.9146C181.457 27.2358 179.123 26.5029 177.619 27.6529ZM253.785 123.698C253.715 124.663 253.541 125.546 253.215 126.275C253.459 125.445 253.646 124.583 253.785 123.698Z"
     fill="#E1E9D9"
     id="path6" />
  <path
     opacity="0.2"
     fill-rule="evenodd"
     clip-rule="evenodd"
     d="M100.732 -43.8876C102.255 -44.6429 104.285 -43.7669 103.438 -41.7701C102.531 -39.6318 99.1763 -39.6054 97.2817 -39.6478C97.4714 -39.6577 98.082 -41.6186 98.291 -41.9148C98.9075 -42.7889 99.7952 -43.4224 100.732 -43.8876ZM83.1942 -4.92708C82.6562 -4.46707 83.1504 -4.88395 83.1942 -4.92708V-4.92708ZM102.502 -33.9599C103.413 -33.2706 103.455 -32.0527 102.711 -31.2279C101.824 -30.2461 100.206 -30.281 98.9979 -30.376C98.4515 -30.419 95.534 -30.649 96.2258 -31.1222C96.1726 -31.1023 96.0615 -31.0539 95.9425 -30.9882C95.8784 -30.7566 95.8111 -30.5258 95.741 -30.2961C95.7581 -30.2862 95.7728 -30.2755 95.7911 -30.2656C95.7712 -30.2742 95.7573 -30.2836 95.7398 -30.2923C95.037 -27.9959 94.0372 -25.8093 92.7284 -23.7634C93.2178 -23.9544 93.7246 -24.0991 94.2386 -24.1637C95.7608 -24.3551 98.9622 -23.1852 97.2586 -21.1771C95.6251 -19.252 93.0846 -21.3152 91.232 -21.5989C89.4336 -19.1138 87.4509 -16.732 85.3732 -14.4298C85.5004 -14.3904 85.6121 -14.3082 85.676 -14.1802C86.5093 -14.5992 87.3776 -15.1985 88.1487 -15.361C89.2613 -15.5952 91.5427 -15.738 92.383 -14.7521C93.4166 -13.5399 92.3075 -12.5542 91.0855 -12.321C89.3136 -11.9828 86.9948 -12.839 85.2903 -13.4174C85.0952 -13.3832 84.8824 -13.4395 84.7553 -13.594C84.7176 -13.6062 84.68 -13.6182 84.6433 -13.6299C82.5393 -11.3388 80.3549 -9.12336 78.1838 -6.95643C78.2069 -6.95764 78.2299 -6.95905 78.254 -6.96031C78.8203 -7.3283 79.4276 -7.63032 80.0858 -7.78868C81.6084 -8.15698 83.3997 -8.15969 84.6346 -7.06925C85.8648 -5.9835 86.2997 -4.08372 85.0259 -2.86318C82.4762 -0.420015 78.7243 -5.98577 77.4389 -6.21752C75.2326 -4.03851 72.8998 -2.00253 70.5304 -0.00756505C70.7994 -0.0888147 71.0752 -0.14857 71.3603 -0.175524C73.6829 -0.396902 79.1327 2.4204 76.2811 5.19644C73.7961 7.61554 70.9237 2.9633 68.9228 1.33681C66.6901 3.19622 64.4451 5.04288 62.2632 6.96146C63.4529 6.64803 64.6025 6.60136 65.8774 6.98234C67.1967 7.37715 69.3253 8.36284 68.4903 10.1277C67.641 11.9225 65.0847 11.1073 63.7534 10.5383C63.0272 10.228 61.5716 9.18002 60.2932 8.73896C56.8113 11.995 53.795 15.581 51.5107 19.8046C50.0846 22.4418 49.002 25.259 48.2395 28.1543C47.7528 30.0024 46.7941 33.1063 46.9844 35.5112C46.0736 30.6977 47.7279 24.9152 49.5091 20.6114C51.1468 16.6538 53.5965 13.1791 56.4653 10.051C55.7469 7.90794 49.6922 4.81948 53.3137 2.82624C55.2369 1.77233 57.2051 3.51848 57.6244 5.36866C57.9125 6.64007 57.4718 8.23797 57.0045 9.47237C57.9069 8.51882 58.8451 7.5959 59.8117 6.70358C61.1477 5.47033 62.5156 4.27282 63.8965 3.09038C61.623 0.975039 59.4733 -5.07445 62.5237 -6.06554C67.028 -7.52492 64.8553 0.729411 64.5404 2.27641C64.4511 2.28168 64.3816 2.255 64.3305 2.19781C64.3558 2.33945 64.3851 2.49093 64.4206 2.64366C67.0637 0.392325 69.746 -1.81479 72.3399 -4.11986C72.1064 -4.29076 71.7354 -4.94401 71.4437 -5.29165C70.7854 -6.07537 70.1556 -6.89406 69.6955 -7.81104C68.9687 -9.26012 68.2682 -11.5717 70.1972 -12.4253C72.2952 -13.3552 73.2906 -10.7409 73.3044 -9.18095C73.3138 -8.1021 73.0166 -7.07709 72.8616 -6.01956C72.8131 -5.68973 72.9983 -4.20321 72.545 -4.8425C72.5663 -4.60671 72.5693 -4.43594 72.5586 -4.31486C73.0243 -4.73075 73.4864 -5.15118 73.9456 -5.57461C73.9244 -5.62805 73.9087 -5.6863 73.9051 -5.75386C73.8808 -6.2189 74.3533 -6.39825 74.6846 -6.26221C75.2905 -6.83256 75.8906 -7.41008 76.4799 -7.99905C77.7289 -9.24685 78.996 -10.5303 80.2544 -11.841C79.9817 -12.073 80.0904 -12.3946 79.8353 -12.641C79.5806 -12.8868 79.0789 -13.0225 78.7794 -13.2508C78.0262 -13.8254 77.4017 -14.6626 76.9502 -15.4867C76.2048 -16.8484 75.2421 -19.7051 77.422 -20.3554C79.6689 -21.0267 80.8078 -18.2769 80.9514 -16.5574C80.9794 -16.2243 80.726 -13.2225 80.5326 -12.1324C82.8611 -14.5683 85.1514 -17.0956 87.2265 -19.6667C86.5977 -19.6721 84.8157 -20.9471 84.4555 -21.2951C83.5766 -22.1439 82.1797 -24.0196 83.7218 -25.0134C85.093 -25.8948 86.7819 -24.62 87.3675 -23.3806C87.4637 -23.1765 87.8025 -21.2766 87.8285 -20.4241C88.6874 -21.5144 89.5067 -22.6111 90.269 -23.7113C90.7774 -24.4427 91.2525 -25.1935 91.6971 -25.9601C91.5902 -26.0201 91.4896 -26.1247 91.3947 -26.2548C89.1088 -26.638 86.1959 -30.1694 88.8818 -31.3999C90.1606 -31.9851 91.5465 -30.7793 92.1723 -29.7918C92.3005 -29.5898 92.5078 -28.5739 92.6765 -27.7726C93.9557 -30.3124 94.9335 -33.0011 95.6781 -35.7576C95.4792 -35.8065 95.3107 -35.957 95.2886 -36.2159C94.179 -36.8421 93.3028 -37.3635 92.5286 -38.5683C92.0476 -39.3166 91.1816 -41.0264 92.5962 -41.4426C94.437 -41.9841 95.5918 -39.2003 95.7417 -37.8289C95.7591 -37.6697 95.7583 -37.2067 95.752 -36.7824C95.8159 -36.791 95.8805 -36.7901 95.9438 -36.779C96.3674 -38.4859 96.7057 -40.2147 96.975 -41.9464C95.9705 -42.2661 95.7995 -47.4916 96.4687 -48.236C97.9647 -49.9028 99.0183 -47.4967 98.9378 -46.2247C98.8428 -44.7248 98.1559 -43.3602 97.3382 -42.149C97.2505 -42.0207 97.2755 -42.0269 97.2529 -42.2056C97.2403 -42.1173 97.2104 -42.0521 97.1662 -42.0049C97.2079 -41.2154 97.2897 -40.4072 97.2499 -39.7086C97.1357 -37.708 96.8994 -35.6956 96.5567 -33.7206C96.4734 -33.2403 96.378 -32.7639 96.2711 -32.2915C97.0789 -32.9733 98.1679 -33.5792 98.594 -33.7687C99.6998 -34.2601 101.404 -34.7909 102.502 -33.9599ZM46.8035 35.3213C46.8569 35.9642 47.0154 36.5509 47.3275 37.0315C47.0984 36.4821 46.9266 35.9099 46.8035 35.3213Z"
     fill="#C1DEE2"
     id="path8" />
  <g
     opacity="0.7"
     id="g20">
    <path
       opacity="0.7"
       fill-rule="evenodd"
       clip-rule="evenodd"
       d="M221.152 79.4589C227.075 79.1517 234.399 82.6088 235.03 89.0468C235.489 93.7246 235.347 98.3889 236.058 103.06C236.626 106.793 237.827 110.376 239.465 113.776C241.04 117.046 244.308 119.829 245.158 123.323C245.7 125.548 245.397 128.679 244.65 130.856C243.741 133.503 244.224 133.294 246.034 135.515C249.581 139.868 252.775 144.331 255.034 149.53C258.288 157.018 260.421 165.77 259.213 173.967C259.06 175.007 258.878 178.743 257.444 179.004C255.844 179.296 256.592 177.159 256.678 176.469C257.222 172.066 257.706 168.218 257.049 163.746C254.514 146.493 242.138 135.125 234.08 120.482C233.637 119.727 232.701 117.928 232.051 116.742C231.025 114.869 229.992 111.305 228.603 109.917C225.985 107.3 228.392 112.56 228.902 113.564C229.546 114.834 230.256 116.184 230.917 117.297C233.94 122.456 237.315 128.087 240.438 133.405C226.932 136.483 217.421 120.245 213.797 109.57C210.811 100.775 207.238 80.2115 221.152 79.4589Z"
       fill="#69A1AC"
       id="path10" />
    <path
       opacity="0.7"
       fill-rule="evenodd"
       clip-rule="evenodd"
       d="M300.528 63.1261C290.628 63.9116 284.272 70.4449 281.313 79.5829C279.719 84.5074 279.536 89.5663 278.65 94.627C277.317 102.241 274.449 108.011 268.844 113.435C267.107 115.115 265.828 116.84 264.919 118.686C263.113 120.528 261.542 122.613 260.387 125.162C258.912 128.418 258.495 132.324 260.198 135.569C260.655 136.442 261.798 138.194 262.981 138.989C258.549 148.429 256.112 158.768 256.387 169.094C256.553 175.327 256.857 181.562 257.212 187.788C257.308 189.459 257.852 192.22 258.67 189.416C259.418 186.852 258.48 182.827 258.393 180.148C257.97 167.098 257.609 155.233 262.981 143.041C263.544 141.763 264.141 140.495 264.763 139.238C264.8 139.216 264.834 139.191 264.868 139.166C264.892 139.184 264.913 139.204 264.937 139.222C264.977 139.151 265.031 139.067 265.094 138.973C265.273 138.788 265.429 138.556 265.577 138.296C266.053 137.636 266.592 136.86 266.595 136.435C266.595 136.432 266.593 136.427 266.593 136.424C269.919 130.995 273.727 125.866 277.617 120.837C277.588 120.873 281.837 115.088 281.18 118.287C280.864 119.829 277.738 122.766 276.476 124.399C273.684 128.032 270.405 132.636 267.68 137.088C267.314 137.299 266.795 138.333 266.421 139.104C266.214 139.494 266.021 139.888 265.831 140.231C275.486 143.421 282.996 136.995 288.117 129.521C288.124 129.512 288.129 129.503 288.135 129.495C289.693 127.429 291.29 125.379 293.284 123.746C296.612 121.022 300.175 120.541 304.098 119.201C314.797 115.545 319.346 101.678 320.79 91.3891C322.42 79.7812 314.447 61.9815 300.528 63.1261Z"
       fill="#89C5CC"
       id="path12" />
    <path
       opacity="0.7"
       fill-rule="evenodd"
       clip-rule="evenodd"
       d="M280.972 30.6194C270.811 41.1955 265.902 55.8648 262.015 69.6554C257.673 85.058 254.806 100.698 254.696 116.712C254.624 127.234 254.338 137.821 254.952 148.33C255.169 152.062 255.541 155.801 256.133 159.493C256.182 159.797 257.505 168.041 258.771 166.12C259.492 165.027 257.415 157.568 257.258 156.325C256.375 149.327 256.17 142.278 256.213 135.229C256.284 123.624 255.942 112.079 257.118 100.517C257.293 98.7903 257.432 96.9771 257.842 95.2883C258.277 93.4929 257.723 94.2766 259.141 93.5658C260.519 92.8748 262.221 92.9735 263.651 92.1066C269.322 88.6678 272.222 79.8344 274.48 74.0386C277.063 67.4107 278.632 60.3431 279.886 53.3682C280.806 48.2436 281.464 43.1501 281.836 37.9595C281.954 36.3236 281.961 34.6129 282.282 33.0044C282.369 32.5705 282.803 31.8029 282.788 31.4187C282.754 30.6055 282.263 30.1272 282.223 29.4438C281.798 29.8266 281.38 30.2188 280.972 30.6194Z"
       fill="#89C5CC"
       id="path14" />
    <path
       opacity="0.7"
       fill-rule="evenodd"
       clip-rule="evenodd"
       d="M225.567 171.529C225.567 189.02 239.745 203.199 257.234 203.199C274.722 203.199 288.9 189.02 288.9 171.529"
       fill="#89C5CC"
       id="path16" />
    <path
       opacity="0.7"
       fill-rule="evenodd"
       clip-rule="evenodd"
       d="M259.775 171.63H258.101C258.217 169.531 258.371 167.435 258.722 165.359C260.064 157.419 264.261 145.756 273.466 144.468C273.806 144.42 275.055 144.412 276.568 144.5C277.285 144.1 278.088 143.857 278.935 143.801C286.772 143.224 295.524 149.547 299.305 156.127C302.352 161.433 301.839 168.399 299.957 174.036C298.696 177.809 295.945 183.19 291.357 183.242C285.617 183.308 285.341 176.213 285.23 172.066C285.082 166.551 284.385 161.748 280.041 157.989C279.028 157.114 277.922 156.343 276.899 155.48C275.297 154.129 273.527 152.745 273.321 150.509C273.036 147.424 274.777 146.869 277.436 147.442C277.889 147.54 282.453 149.588 281.778 147.969C281.571 147.475 280.818 147.083 279.866 146.789C277.405 146.521 274.469 146.211 273.625 146.396C264.518 148.394 260.972 161.011 260.03 169.027C259.928 169.893 259.846 170.761 259.775 171.63Z"
       fill="#69A1AC"
       id="path18" />
  </g>
  <g
     opacity="0.5"
     id="g34">
    <path
       opacity="0.5"
       fill-rule="evenodd"
       clip-rule="evenodd"
       d="M86.8535 21.6193C88.6764 19.0198 92.0592 12.418 94.6249 11.4891C96.2774 10.8908 95.7956 17.0796 95.816 18.2596C95.8955 22.8251 95.451 27.3616 94.9022 31.8887C93.9135 40.0533 90.6803 47.3245 86.2458 54.2735C83.9638 57.8491 81.2873 61.4682 77.5803 63.6992C75.8739 64.7266 73.8207 64.8987 72.1355 65.7839C70.1729 66.8144 71.2417 65.9813 70.3573 68.0266C69.129 70.8663 68.7361 74.5298 68.1678 77.5598C65.5584 91.4692 59.2411 164.998 60.3363 179.146C60.4335 180.401 58.6851 180.7 58.5978 179.169C58.1339 171.052 62.1484 114.838 64.1738 96.4547C66.1992 78.0713 68.2488 61.8304 70.3039 55.4702C72.7971 47.7541 77.2999 38.4748 81.0482 31.2791C82.7893 27.9362 84.687 24.7084 86.8535 21.6193Z"
       fill="#69A1AC"
       id="path22" />
    <path
       opacity="0.5"
       fill-rule="evenodd"
       clip-rule="evenodd"
       d="M100.384 111.782C105.127 108.299 110.262 114.872 105.969 118.356C103.596 120.281 101.116 119.596 99.719 117.992C98.8124 119.097 97.9639 120.253 97.1485 121.229C94.6644 124.203 92.3165 127.248 90.0726 130.364C85.4112 136.839 81.4164 143.678 77.2397 150.393C73.1178 157.02 69.0288 163.681 65.2927 170.475C62.1278 176.232 57.9093 183.005 56.8257 189.316C58.4698 175.931 64.7083 163.066 72.1374 151.266C79.506 139.563 87.9623 126.782 99.3716 117.546C98.2104 115.838 98.1782 113.4 100.384 111.782Z"
       fill="#C1DEE2"
       id="path24" />
    <path
       opacity="0.5"
       fill-rule="evenodd"
       clip-rule="evenodd"
       d="M10.3731 79.1382C13.0276 79.6574 17.3649 85.6627 19.5529 87.9507C22.1532 90.6698 24.5124 93.5679 26.7362 96.6044C31.5235 103.14 35.805 110.089 39.4456 117.336C45.3809 129.149 50.1358 141.276 53.5866 154.141C55.699 162.015 57.0667 170.177 57.8773 178.282C58.0303 179.81 59.6327 191.595 57.3238 191.913C55.2471 192.199 55.8885 182.964 55.7884 181.708C54.6559 167.537 51.2633 153.749 46.5443 140.392C45.5165 137.482 44.5615 133.919 42.9177 131.3C41.734 129.414 42.9092 130.072 40.8289 129.358C39.0426 128.745 37.0074 128.895 35.1782 128.144C31.2045 126.514 28.0226 123.35 25.2336 120.168C19.8134 113.983 15.5182 107.292 13.2792 99.3673C12.0372 94.9732 10.8959 90.5535 10.2625 86.0235C10.0987 84.8526 8.66343 78.8038 10.3731 79.1382Z"
       fill="#69A1AC"
       id="path26" />
    <path
       opacity="0.5"
       fill-rule="evenodd"
       clip-rule="evenodd"
       d="M20.8481 -20.7777C30.8468 -3.43586 39.0633 15.6137 44.3688 34.908C47.5833 46.5982 49.8312 58.5941 52.0648 70.5033C55.523 88.9432 58.7941 107.382 59.7246 126.149C60.6607 145.025 62.5118 166.797 56.3314 184.978C59.4186 166.519 56.4794 146.872 55.959 128.299C55.7103 119.432 54.9896 110.652 54.0443 101.838C53.1269 93.2871 51.6281 84.7772 50.2325 76.2937C49.5526 72.1621 48.8386 68.0367 48.1116 63.9136C47.8946 62.6834 47.8029 59.0331 47.0227 58.1928C46.2374 57.3469 42.2306 57.002 40.9727 56.3814C38.4396 55.1313 36.0569 53.3556 33.9482 51.4794C29.9057 47.8827 26.389 43.1831 23.6133 38.5505C17.191 27.8312 14.6234 14.7499 14.7532 2.33561C14.7781 -0.0746727 18.6541 -26.0296 17.0974 -26.387C17.1912 -26.4968 17.2798 -26.6101 17.3634 -26.728C18.5419 -24.7547 19.6984 -22.7679 20.8481 -20.7777Z"
       fill="#89C5CC"
       id="path28" />
    <path
       opacity="0.5"
       fill-rule="evenodd"
       clip-rule="evenodd"
       d="M128.767 41.7672C128.921 41.5447 129.925 39.9969 129.42 40.0958C130.449 39.8945 128.004 41.8028 130.569 40.6319C129.351 41.7822 130.054 43.2766 130.07 44.8248C130.097 47.3385 129.676 49.8316 129.203 52.2914C128.455 56.1795 127.34 59.9599 125.723 63.5763C122.198 71.4574 116.211 79.0443 109.105 83.9715C105.596 86.4042 102.158 87.2325 98.1565 88.3524C95.6291 89.0599 95.4287 90.3675 94.0871 92.8203C91.2941 97.9289 88.5508 103.019 86.0876 108.3C83.1464 114.606 80.2912 120.919 77.5979 127.336C68.5246 148.952 61.1399 171.346 57.2616 194.522C57.1667 180.865 60.3258 166.799 64.3107 153.781C67.2135 144.296 70.9924 135.154 75.0229 126.103C75.9996 123.911 77.4797 121.091 77.8945 118.67C78.1849 116.974 77.297 115.343 76.8904 113.556C75.3056 106.599 75.419 98.8043 76.8108 91.8097C78.3453 84.0968 82.783 80.517 90.29 79.4245C93.0355 79.0249 96.5251 79.1714 99.0425 78.0006C101.785 76.7258 102.917 72.5353 104.476 69.8453C108.665 62.6194 113.643 55.6894 119.358 49.601C120.94 47.9151 122.642 46.3596 124.448 44.918C125.586 44.0084 127.991 42.8877 128.767 41.7672Z"
       fill="#89C5CC"
       id="path30" />
    <path
       opacity="0.5"
       fill-rule="evenodd"
       clip-rule="evenodd"
       d="M44.5891 179.772H71.2309C72.4287 179.772 73.3998 180.743 73.3998 181.941C73.3998 182.047 73.392 182.153 73.3766 182.258L71.3174 196.222C70.6897 200.479 67.0371 203.632 62.7346 203.632H53.0854C48.7829 203.632 45.1303 200.479 44.5026 196.222L42.4434 182.258C42.2687 181.072 43.0876 179.97 44.2727 179.795C44.3775 179.78 44.4832 179.772 44.5891 179.772Z"
       fill="#C1DEE2"
       id="path32" />
  </g>
  <path
     fill-rule="evenodd"
     clip-rule="evenodd"
     d="M20.5691 186.911C20.5691 196.146 21.2978 203.632 31.0787 203.632C40.8597 203.632 41.5884 196.146 41.5884 186.911"
     fill="#F2F2F2"
     id="path36" />
  <path
     fill-rule="evenodd"
     clip-rule="evenodd"
     d="M33.9885 181.149C33.6299 181.769 33.3103 182.401 33.0279 183.043C33.0179 181.721 33.091 180.39 33.2906 179.04C33.6317 176.728 34.1528 174.428 34.6424 172.132C34.9943 170.481 34.972 167.517 36.3075 166.202C36.6737 165.918 36.7618 166.476 36.7618 166.718C36.7664 166.769 36.7608 165.73 36.4054 165.911C34.2926 167.002 33.608 170.434 32.9316 172.152C31.9447 174.659 31.105 177.223 30.7592 179.832C30.6718 180.491 30.6243 181.15 30.6133 181.808C30.5415 181.632 30.474 181.454 30.3994 181.279C29.18 178.419 27.5343 175.628 25.4818 173.054C24.9766 172.421 18.6242 166.171 18.1269 167.128C18.176 167.267 18.2787 167.382 18.4353 167.474C18.4445 167.484 18.4448 167.478 18.4394 167.463C18.8125 168.066 19.8732 168.996 20.2037 169.525C21.0352 170.854 21.6814 172.264 22.3382 173.647C23.7258 176.571 25.0129 179.524 26.2607 182.483C26.5512 183.173 26.8541 183.858 27.163 184.542C23.9782 179.947 19.7296 175.777 13.8811 173.389C15.8787 174.406 17.1883 176.318 18.5373 177.782C20.1643 179.548 21.8779 181.266 23.508 183.03C25.4307 185.111 27.693 187.302 29.5423 189.605C31.3337 193.366 33.0744 197.131 34.1489 201.085C33.7086 199.719 34.1144 197.831 34.0391 196.398C33.9793 195.257 33.8459 194.125 33.6632 192.995C33.8891 193.505 34.0838 194.015 34.1719 194.489C34.0914 193.693 33.9987 192.903 33.899 192.117C34.1548 191.38 34.406 190.693 34.5757 190.127C35.4453 187.225 36.4807 184.372 37.8908 181.591C39.1956 179.019 40.6923 176.479 42.3231 174.017C43.0839 172.869 43.8551 171.726 44.6214 170.58C45.1231 169.83 45.6007 168.63 46.2991 167.911C41.7847 172.039 36.8525 176.196 33.9885 181.149Z"
     fill="#F2F2F2"
     id="path38" />
  <path
     fill-rule="evenodd"
     clip-rule="evenodd"
     d="M307.827 -7.28089C306.533 -11.598 303.495 -14.9769 300.341 -18.0728C294.2 -24.0998 290.898 -27.8263 288.71 -36.6428C287.423 -41.8279 286.113 -47.3227 282.031 -51.0846C279.059 -53.824 273.943 -56.1257 269.968 -54.164C263.853 -50.5138 262.211 -43.023 262.828 -36.3155C263.592 -28.0019 267.475 -22.8758 274.935 -19.8137C279.138 -18.0892 281.932 -15.8136 284.214 -11.8485C286.039 -8.67787 287.103 -4.70758 289.397 -1.8333C292.825 2.46335 297.116 4.37339 302.405 3.65967C297.451 -5.45559 291.663 -14.6565 284.682 -22.3311C284.029 -23.1027 280.175 -26.0559 280.952 -27.3709C281.808 -28.8188 285.765 -23.38 285.737 -23.4128C287.766 -21.0838 289.643 -18.6089 291.487 -16.1103C291.482 -16.1078 291.476 -16.1065 291.471 -16.1039C293.369 -13.54 295.252 -10.9383 297.099 -8.30388C297.846 -7.18957 298.573 -6.061 299.269 -4.90414C300.291 -3.2066 301.912 1.61137 303.583 2.65519C303.941 2.87837 304.271 3.00311 304.58 3.05457C305.721 4.9219 306.83 6.80421 307.885 8.70875C310.641 13.683 313.007 18.935 314.092 24.551C314.409 26.19 314.185 32.3215 315.304 33.5047C317.349 35.6691 316.75 31.5012 316.628 30.2432C315.612 19.8256 311.872 10.9503 306.442 2.1922C308.11 0.0135124 308.351 -5.5317 307.827 -7.28089Z"
     fill="#E1E9D9"
     id="path40" />
  <path
     fill-rule="evenodd"
     clip-rule="evenodd"
     d="M237.77 -2.24735C239.927 -4.78835 245.11 -5.2195 248.281 -5.0494C252.204 -4.83896 256.233 -3.88388 259.966 -2.72902C266.114 -0.82684 272.088 2.64446 277.503 6.00432C278.155 6.40917 286.195 11.2443 285.483 12.0928C284.778 12.9335 276.886 7.19012 275.127 6.20022C271.374 4.08725 267.932 1.58841 263.794 0.193067C259.511 -1.25199 254.98 -1.82415 250.475 -1.7847C249.897 -1.77955 248.011 -2.18267 247.971 -1.32728C247.931 -0.490676 251.051 -0.927163 251.602 -0.922158C253.874 -0.901277 256.161 -0.687354 258.401 -0.293482C262.599 0.4444 266.545 1.93095 270.14 4.21101C269.137 6.5436 266.732 7.61914 264.21 7.03543C262.029 6.53065 259.904 5.28623 257.769 4.92636C256.299 4.67862 254.827 4.82601 253.401 5.24029C249.64 6.33337 247.471 8.57267 243.336 7.01502C240.094 5.79393 234.673 1.4069 237.77 -2.24735Z"
     fill="#D9DFD1"
     id="path42" />
  <g
     style="fill:none"
     id="g89"
     transform="translate(54.994678,-0.76686553)">
    <path
       fill-rule="evenodd"
       clip-rule="evenodd"
       d="m 113.837,43.128 c 2.68,-3.1506 4.494,-7.0117 4.191,-11.3382 -0.874,-12.4658 -18.1989,-9.7235 -21.569,-3.4318 -3.3702,6.2916 -2.9697,22.2509 1.3859,23.3754 1.737,0.4485 5.4371,-0.65 9.2031,-2.9236 L 104.684,65.56 h 13.958 z"
       fill="#cfaf92"
       id="path50" />
    <path
       fill-rule="evenodd"
       clip-rule="evenodd"
       d="m 104.415,21.1066 c 1.839,-0.3021 6.792,-0.5099 7.706,-0.5097 0.584,0 1.216,0.1335 1.562,-0.4033 0.283,-0.4396 0.179,-1.1831 0.264,-1.6933 0.098,-0.5926 0.237,-1.1776 0.378,-1.7612 0.401,-1.6604 1.008,-3.2401 1.857,-4.7232 1.592,-2.78259 3.925,-4.96217 6.871,-6.23047 3.252,-1.40039 6.932,-1.72105 10.431,-1.437 3.744,0.30389 7.133,1.54174 10.668,2.70664 3.368,1.11004 6.896,1.54698 10.419,1.0049 3.55,-0.5461 6.232,-2.47302 9.226,-4.3019 3.065,-1.87234 6.568,-3.096913 10.191,-2.815413 3.382,0.262863 6.5,1.661643 9.297,3.530223 2.616,1.74828 4.776,3.85169 5.995,6.81212 1.311,3.1844 1.31,6.6799 -0.847,9.4943 -3.126,4.0794 -8.928,5.1343 -13.756,5.0294 -2.793,-0.0605 -5.535,-0.571 -8.172,-1.4997 -3.516,-1.2387 -6.554,-3.3381 -9.843,-5.0414 -1.544,-0.7994 -3.139,-1.4558 -4.812,-1.9287 -1.623,-0.4591 -3.221,-0.6696 -4.691,0.3123 -1.554,1.0389 -2.947,2.0593 -4.726,2.7096 -1.706,0.6239 -3.513,0.9729 -5.33,0.9588 -3.537,-0.0274 -7.023,-1.131 -10.457,-1.8702 -2.801,-0.6027 -5.798,-1.2034 -8.653,-0.624 -1.192,0.2418 -2.932,0.741 -3.363,1.9812 7.243,1.3149 10.088,10.2869 8.046,16.8733 -1.102,3.5549 -7.727,7.7105 -10.302,5.8417 -1.632,-1.184 -0.642,-2.7384 0,-3.7645 1.227,-1.965 1.647,-4.4891 -0.624,-5.8571 -1.96,-1.18 -4.021,1.622 -4.06,1.6189 -0.538,-0.0425 -5.193,-2.6788 -8.3993,-6.5259 -3.1633,0.1878 -3.6433,-1.9013 -2.8879,-3.6099 0.7553,-1.7085 5.4702,-3.8587 8.0122,-4.2765 z"
       fill="#191847"
       id="path52" />
    <path
       d="m 124.458,215.263 c -24.732,0 -44.7814,-19.169 -44.7814,-42.814 0,-23.646 20.0494,-42.814 44.7814,-42.814 24.732,0 44.782,19.168 44.782,42.814 0,23.645 -20.05,42.814 -44.782,42.814 z"
       fill="#c5cfd6"
       id="path54" />
    <path
       fill-rule="evenodd"
       clip-rule="evenodd"
       d="m 39.833,208.657 c 7.4517,-16.519 12.8406,-30.903 15.0037,-38.492 3.7038,-12.994 6.5214,-24.428 7.2335,-28.698 1.6982,-10.182 -13.0634,-10.775 -15.0145,-5.715 -2.9532,7.66 -8.1088,32.825 -14.3036,70.836 z m 86.435,-51.84 c -6.837,-2.707 -30.7794,-11.178 -42.3268,-13.574 -3.3183,-0.689 -6.5345,-1.328 -9.5582,-1.907 -8.9877,-1.718 -13.6441,14.522 -4.9879,15.769 21.5574,3.108 52.1189,6.317 54.7339,6.677 3.666,0.505 6.436,-5.264 2.139,-6.965 z"
       fill="#cfaf92"
       id="path56" />
    <path
       fill-rule="evenodd"
       clip-rule="evenodd"
       d="m 68.8667,136.867 36.9813,-18.855 v -4.105 h -4.398 c -35.7777,9.132 -54.06,14.983 -54.847,17.556 -0.0085,0.027 -0.0162,0.055 -0.0233,0.083 -0.018,0.024 -0.0357,0.047 -0.0531,0.071 -7.0903,9.767 -11.3367,57.449 -12.7304,61.019 l 13.5866,2.03 c 5.1973,-19.303 21.8254,-32.75 21.3837,-55.869 0.1192,-0.678 0.1494,-1.321 0.1002,-1.93 z"
       fill="#1f28cf"
       id="path58" />
    <path
       fill-rule="evenodd"
       clip-rule="evenodd"
       d="m 102.775,148.066 c 3.384,-0.679 6.5,-1.284 9.166,-1.753 17.223,-3.025 22.245,-12.259 19.275,-32.406 H 99.4843 c -5.1836,1.492 -32.122,12.807 -46.0988,18.825 -9.2506,3.983 -6.3345,18.342 -1.0959,22.078 0.0284,0.23 0.1227,0.385 0.2906,0.455 28.1801,11.698 50.4728,5.56 57.9198,7.521 l 3.445,-10.883 z"
       fill="#2b44ff"
       id="path60" />
    <path
       fill-rule="evenodd"
       clip-rule="evenodd"
       d="m 123.926,155.088 c 1.847,0.177 3.159,0.456 3.934,0.834 0.943,0.461 2.243,1.291 3.899,2.49 -0.533,1.095 -5.324,10.936 -14.373,29.524 -2.908,-0.471 -4.061,-1.582 -3.458,-3.334 0.603,-1.752 1.089,-3.214 1.458,-4.387 l 0.569,-16.709 c 0.01,-0.322 0.28,-0.574 0.601,-0.562 0.005,0 0.011,0 0.016,0 l 2.568,0.163 c 1.458,-1.182 2.42,-2.251 2.886,-3.208 0.378,-0.777 0.587,-2.004 0.627,-3.68 v 0 c 0.015,-0.643 0.548,-1.152 1.19,-1.136 0.028,0 0.056,0.002 0.083,0.005 z"
       fill="#e4e4e4"
       id="path62" />
    <path
       fill-rule="evenodd"
       clip-rule="evenodd"
       d="M 69.7896,97.9569 48.7163,88.6876 c -3.6915,-3.6844 -7.2562,-6.4847 -10.6941,-8.4009 -1.028,-0.3278 -2.7843,-0.4269 -0.9105,2.3144 1.8738,2.7412 3.7217,5.709 2.973,6.6697 -0.7487,0.9607 -2.9176,-0.0997 -3.7745,1.4626 -0.5712,1.0416 3.0847,2.2874 10.9679,3.7377 l 15.7827,12.1199 z m 85.1964,2.5531 -11.917,2.368 c 11.985,22.371 18.412,34.228 19.282,35.57 1.957,3.02 0.131,8.555 -0.544,11.47 4.231,0.987 2.563,-5.391 7.917,-4.06 4.887,1.216 9.031,4.335 13.588,0.128 0.56,-0.517 0.97,-2.134 -0.94,-2.963 -4.759,-2.066 -11.79,-5.934 -12.93,-7.436 -1.555,-2.048 -6.373,-13.74 -14.456,-35.077 z"
       fill="#cfaf92"
       id="path64" />
    <path
       fill-rule="evenodd"
       clip-rule="evenodd"
       d="m 110.678,55.8509 -5.029,-0.864 C 94.695,65.6293 90.225,91.1972 82.9252,94.5816 76.0235,97.7813 66.2399,94.685 54.6105,90.5041 l -3.5614,7.9698 C 61.6155,109.923 84.126,119.597 93.2505,114.074 107.839,105.246 111.206,73.7113 110.678,55.8509 Z"
       fill="#db2721"
       id="path66" />
    <path
       fill-rule="evenodd"
       clip-rule="evenodd"
       d="m 132.6,119.15 c -20.164,0 -34.9967,0 -44.4973,0 -2.0333,0 -1.6502,-2.941 -1.3563,-4.425 3.3923,-17.1253 16.6346,-35.586 16.6346,-59.9641 l 12.835,-2.0159 c 10.616,17.1013 14.288,38.1564 16.384,66.405 z"
       fill="#dde3e9"
       id="path68" />
    <path
       fill-rule="evenodd"
       clip-rule="evenodd"
       d="m 137.038,101.811 c 9.071,16.388 16.696,28.187 22.874,35.396 l 9.328,-1.829 C 163.231,98.0581 145.833,70.5138 117.044,52.745 h -0.147 -4.935 c -11.523,39.3403 -14.6992,65.553 -9.53,78.637 h 40.055 c -0.634,-9.574 -2.666,-19.699 -5.449,-29.571 z"
       fill="#ff4133"
       id="path70" />
  </g>
</svg>
